PathFileType	4	(X/Y/Z)	markers_results_mono.trc
DataRate	CameraRate	NumFrames	NumMarkers	Units	OrigDataRate	OrigDataStartFrame	OrigNumFrames
12.500000	12.500000	18	22	m	12.500000	1508	3015
Frame#	Time	Nose			Neck			LShoulder			RShoulder			LElbow			RElbow			LWrist			RWrist			LHip			RHip			LKnee			RKnee			LAnkle			RAnkle			LEye			REye			LThumb			LIndex			LPinky			RThumb			RIndex			RPinky
		X1	Y1	Z1	X2	Y2	Z2	X3	Y3	Z3	X4	Y4	Z4	X5	Y5	Z5	X6	Y6	Z6	X7	Y7	Z7	X8	Y8	Z8	X9	Y9	Z9	X10	Y10	Z10	X11	Y11	Z11	X12	Y12	Z12	X13	Y13	Z13	X14	Y14	Z14	X15	Y15	Z15	X16	Y16	Z16	X17	Y17	Z17	X18	Y18	Z18	X19	Y19	Z19	X20	Y20	Z20	X21	Y21	Z21	X22	Y22	Z22

1508	120.560000	0.582604	-1.257916	-0.261088	0.409080	-1.260255	-0.039915	0.355987	-1.319430	-0.229905	0.462173	-1.201079	0.150075	0.080202	-1.302184	-0.244520	0.225632	-0.964542	0.345315	0.144612	-1.251628	-0.305381	0.143707	-0.647180	0.255405	-0.049137	-0.707792	-0.124200	0.077969	-0.696275	0.132560	-0.264018	-0.311853	-0.059253	0.040635	-0.275403	0.165433	-0.547004	0.012617	-0.000184	-0.233510	0.101436	0.266935	0.582604	-1.296001	-0.273783	0.582604	-1.280132	-0.184919	0.144612	-1.156293	-0.187074	0.144612	-1.151699	-0.158359	0.144612	-1.142510	-0.285854	0.143707	-0.548904	0.138108	0.143707	-0.453798	0.163469	0.143707	-0.431607	0.223703
1509	120.640000	0.570114	-1.269238	-0.256669	0.398462	-1.259263	-0.034502	0.344767	-1.319284	-0.222234	0.452156	-1.199242	0.153230	0.077535	-1.308950	-0.246187	0.218873	-0.957985	0.342957	0.147061	-1.268295	-0.308926	0.140676	-0.644236	0.250146	-0.048314	-0.704101	-0.123112	0.076926	-0.692353	0.131159	-0.261527	-0.311273	-0.060717	0.030691	-0.274363	0.161426	-0.543110	0.010152	-0.003568	-0.238458	0.099334	0.262495	0.570114	-1.297259	-0.250442	0.570114	-1.275465	-0.200626	0.147061	-1.169616	-0.187928	0.147061	-1.160218	-0.157384	0.147061	-1.153170	-0.286606	0.140676	-0.541510	0.131369	0.140676	-0.454835	0.153841	0.140676	-0.438784	0.224464
1510	120.720000	0.550801	-1.286979	-0.247902	0.383035	-1.260217	-0.027117	0.329169	-1.319318	-0.212510	0.436902	-1.201116	0.158275	0.070703	-1.312292	-0.248788	0.211307	-0.955374	0.345703	0.142609	-1.286275	-0.314155	0.136067	-0.643955	0.250899	-0.045897	-0.700586	-0.121027	0.075084	-0.688456	0.130207	-0.256416	-0.308726	-0.060369	0.019171	-0.272148	0.159451	-0.540038	0.007771	-0.002160	-0.247377	0.095096	0.259913	0.550801	-1.333220	-0.247902	0.550801	-1.299310	-0.198578	0.142609	-1.209787	-0.322424	0.142609	-1.473359	-0.464029	0.142609	-1.184981	-0.303818	0.136067	-0.543041	0.133708	0.136067	-0.464915	0.149984	0.136067	-0.455149	0.228112
1511	120.800000	0.529556	-1.307958	-0.232973	0.365976	-1.260553	-0.018916	0.312028	-1.318916	-0.201878	0.419924	-1.202191	0.164047	0.061974	-1.312879	-0.262387	0.203633	-0.950396	0.345131	0.147415	-1.300889	-0.322545	0.133412	-0.642890	0.245598	-0.043633	-0.696462	-0.119807	0.073030	-0.684011	0.128320	-0.251866	-0.309241	-0.063974	0.004945	-0.271238	0.155183	-0.532911	0.002534	-0.008744	-0.251979	0.091515	0.251037	0.529556	-1.367343	-0.227034	0.529556	-1.328742	-0.179526	0.147415	-1.346618	-0.326232	0.147415	-1.275811	-0.377125	0.147415	-1.337767	-0.320701	0.133412	-0.536843	0.126697	0.133412	-0.488640	0.142765	0.133412	-0.475786	0.226317
1512	120.880000	0.503078	-1.332147	-0.213406	0.345544	-1.262317	-0.009836	0.291847	-1.317877	-0.190492	0.399241	-1.206758	0.170820	0.048178	-1.307083	-0.276331	0.197272	-0.949711	0.350355	0.147848	-1.310280	-0.331657	0.130744	-0.644241	0.248034	-0.039531	-0.693186	-0.118169	0.069629	-0.680709	0.127651	-0.245056	-0.306901	-0.067248	-0.008676	-0.268954	0.153465	-0.529040	-0.000624	-0.011311	-0.260611	0.087480	0.243866	0.503078	-1.392168	-0.204403	0.503078	-1.356156	-0.159387	0.147848	-1.356607	-0.335271	0.147848	-1.291553	-0.313586	0.147848	-1.283667	-0.328700	0.130744	-0.534633	0.125531	0.130744	-0.483052	0.138426	0.130744	-0.483052	0.228691
1513	120.960000	0.477786	-1.354597	-0.192948	0.327018	-1.264399	-0.002522	0.274081	-1.317760	-0.181333	0.379954	-1.211037	0.176288	0.039338	-1.303410	-0.291066	0.191729	-0.947972	0.350353	0.156135	-1.316923	-0.337131	0.132112	-0.646196	0.243369	-0.036215	-0.690245	-0.118155	0.066250	-0.677601	0.126631	-0.239150	-0.307498	-0.076698	-0.020701	-0.268001	0.149087	-0.524411	-0.006799	-0.024920	-0.266404	0.084401	0.228797	0.477786	-1.414772	-0.189940	0.477786	-1.384685	-0.141800	0.156135	-1.302413	-0.340903	0.156135	-1.293997	-0.341774	0.156135	-1.313441	-0.334229	0.132112	-0.538093	0.115612	0.132112	-0.508611	0.122163	0.132112	-0.502059	0.210611
1514	121.040000	0.451984	-1.374671	-0.176315	0.308453	-1.269192	0.003793	0.256182	-1.318972	-0.173890	0.360724	-1.219411	0.181476	0.027921	-1.298557	-0.301965	0.188175	-0.952517	0.356565	0.153114	-1.320303	-0.346908	0.134306	-0.651891	0.247601	-0.031404	-0.689313	-0.117826	0.062067	-0.676693	0.127382	-0.229911	-0.304611	-0.086133	-0.027383	-0.265555	0.147037	-0.525039	-0.011209	-0.034298	-0.276523	0.080674	0.216662	0.451984	-1.431023	-0.179446	0.451984	-1.409108	-0.123093	0.153114	-1.309096	-0.347793	0.153114	-1.299953	-0.348678	0.153114	-1.300838	-0.343664	0.134306	-0.545928	0.118459	0.134306	-0.512814	0.118459	0.134306	-0.506192	0.214488
1515	121.120000	0.432129	-1.388355	-0.163444	0.294016	-1.271489	0.007060	0.242280	-1.318892	-0.170391	0.345752	-1.224085	0.184511	0.022866	-1.293938	-0.318629	0.184785	-0.953447	0.355687	0.156398	-1.320253	-0.371506	0.140975	-0.656010	0.244248	-0.027854	-0.687167	-0.119023	0.058411	-0.674229	0.127488	-0.222269	-0.304627	-0.100733	-0.032327	-0.263613	0.142076	-0.523379	-0.017750	-0.055023	-0.281402	0.079203	0.196950	0.432129	-1.447204	-0.166541	0.432129	-1.425523	-0.110788	0.156398	-1.034335	-0.374242	0.156398	-0.996030	-0.251120	0.156398	-0.996030	-0.252488	0.140975	-0.546832	0.111911	0.140975	-0.520365	0.118528	0.140975	-0.510439	0.211164
1516	121.200000	0.413479	-1.401076	-0.154772	0.280221	-1.276457	0.009446	0.229180	-1.319904	-0.168728	0.331263	-1.233011	0.187620	0.013712	-1.286602	-0.331684	0.181329	-0.960950	0.361311	0.147917	-1.324887	-0.404825	0.146198	-0.664411	0.251921	-0.023161	-0.688031	-0.119427	0.054392	-0.674917	0.129120	-0.212692	-0.302627	-0.113515	-0.034876	-0.261770	0.140816	-0.525406	-0.021868	-0.069039	-0.290772	0.076278	0.182012	0.413479	-1.457748	-0.157920	0.413479	-1.442005	-0.101248	0.147917	-1.036547	-0.347157	0.147917	-0.999977	-0.282456	0.147917	-0.998571	-0.282456	0.146198	-0.558034	0.118949	0.146198	-0.534763	0.125598	0.146198	-0.524791	0.215354
1517	121.280000	0.401573	-1.410032	-0.147822	0.271035	-1.279678	0.009724	0.221363	-1.320558	-0.169812	0.320707	-1.238799	0.189260	0.011115	-1.278869	-0.347874	0.175849	-0.964627	0.359573	0.148215	-1.318712	-0.449235	0.152022	-0.671177	0.252446	-0.020161	-0.688462	-0.120913	0.051271	-0.675083	0.129350	-0.203078	-0.303562	-0.128846	-0.037711	-0.262634	0.137418	-0.519980	-0.027198	-0.090219	-0.293526	0.074300	0.162865	0.401573	-1.467030	-0.154156	0.401573	-1.454364	-0.093991	0.148215	-1.358627	-0.646816	0.148215	-1.709881	-0.646816	0.148215	-0.853699	-0.646816	0.152022	-0.568323	0.119730	0.152022	-0.541780	0.126366	0.152022	-0.538462	0.219267
1518	121.360000	0.390768	-1.418004	-0.142380	0.262204	-1.284085	0.010399	0.215621	-1.320783	-0.171383	0.308788	-1.247387	0.192182	0.001467	-1.263890	-0.348660	0.167110	-0.973821	0.365501	0.138121	-1.298918	-0.477066	0.151380	-0.680226	0.266116	-0.015438	-0.690214	-0.121479	0.047229	-0.677256	0.131297	-0.190467	-0.298505	-0.136352	-0.040923	-0.262451	0.139240	-0.514756	-0.024808	-0.097393	-0.302570	0.072132	0.153247	0.390768	-1.475598	-0.151980	0.390768	-1.465999	-0.084787	0.138121	-1.336717	-0.614518	0.138121	-1.350462	-0.614518	0.138121	-0.902026	-0.614518	0.151380	-0.577357	0.130064	0.151380	-0.547492	0.136700	0.151380	-0.547492	0.232933
1519	121.440000	0.385935	-1.424094	-0.135628	0.256618	-1.287327	0.009465	0.213886	-1.321060	-0.174628	0.299349	-1.253593	0.193558	-0.006485	-1.247849	-0.342991	0.153563	-0.981727	0.364122	0.128079	-1.255326	-0.474949	0.145953	-0.689415	0.272233	-0.012009	-0.691764	-0.123016	0.043891	-0.679264	0.131537	-0.178928	-0.296784	-0.140681	-0.045340	-0.265825	0.139267	-0.499784	-0.022276	-0.106486	-0.305636	0.068888	0.141791	0.385935	-1.486161	-0.148695	0.385935	-1.476361	-0.080094	0.128079	-1.297122	-0.531943	0.128079	-1.297122	-0.537643	0.128079	-1.257226	-0.530044	0.145953	-0.586116	0.146338	0.145953	-0.550607	0.152794	0.145953	-0.540923	0.243180
1520	121.520000	0.380611	-1.430383	-0.129171	0.250800	-1.292092	0.009929	0.213827	-1.320921	-0.176820	0.287773	-1.263264	0.196678	-0.018627	-1.225680	-0.328046	0.135515	-0.996187	0.369579	0.095378	-1.195167	-0.454141	0.131406	-0.702414	0.289706	-0.006519	-0.694616	-0.123795	0.039219	-0.683250	0.133794	-0.166653	-0.289610	-0.135248	-0.051375	-0.267530	0.144288	-0.486895	-0.009777	-0.102949	-0.318002	0.065348	0.140638	0.380611	-1.494313	-0.148351	0.380611	-1.487921	-0.071634	0.095378	-1.246065	-0.490901	0.095378	-1.282825	-0.516350	0.095378	-1.206477	-0.530488	0.131406	-0.589366	0.176658	0.131406	-0.550606	0.186348	0.131406	-0.566756	0.263866
1521	121.600000	0.380894	-1.434148	-0.123435	0.248536	-1.294212	0.006989	0.218123	-1.318944	-0.182442	0.278949	-1.269479	0.196420	-0.021945	-1.203443	-0.319171	0.113270	-1.007388	0.362540	0.070338	-1.125404	-0.432148	0.113459	-0.715181	0.294220	-0.002488	-0.696203	-0.125620	0.035058	-0.686644	0.133696	-0.154238	-0.286253	-0.130364	-0.057481	-0.270897	0.145106	-0.461983	0.005119	-0.115012	-0.322587	0.064147	0.133700	0.380894	-1.498245	-0.145869	0.380894	-1.491835	-0.062543	0.070338	-1.125404	-0.473287	0.070338	-1.113062	-0.497970	0.070338	-1.121290	-0.555565	0.113459	-0.600618	0.192750	0.113459	-0.558066	0.202569	0.113459	-0.580978	0.271308
1522	121.680000	0.398925	-1.431141	-0.110587	0.260459	-1.287322	-0.007655	0.235936	-1.315646	-0.197122	0.284982	-1.258997	0.181812	0.011774	-1.193770	-0.342729	0.088110	-0.996529	0.303668	0.110887	-1.045903	-0.422639	0.100807	-0.718884	0.238537	-0.007160	-0.691266	-0.130572	0.034982	-0.682206	0.120364	-0.144805	-0.305817	-0.151002	-0.067627	-0.285708	0.123755	-0.406198	-0.006659	-0.181012	-0.294272	0.063044	0.090876	0.398925	-1.475232	-0.135082	0.398925	-1.455636	-0.066495	0.110887	-1.067350	-0.317358	0.110887	-1.051752	-0.290062	0.110887	-1.018608	-0.329055	0.100807	-0.818886	0.033531	0.100807	-0.793885	-0.001470	0.100807	-0.663882	0.058531
1523	121.760000	0.376896	-1.444378	-0.108506	0.242346	-1.299418	-0.008030	0.229808	-1.310625	-0.206312	0.254885	-1.288212	0.190251	-0.014442	-1.149238	-0.320260	0.063867	-1.044932	0.354122	0.032267	-0.984874	-0.390103	0.069764	-0.752358	0.309573	0.009287	-0.698701	-0.127907	0.022110	-0.695266	0.136304	-0.120803	-0.272118	-0.122619	-0.070478	-0.276721	0.153915	-0.429517	0.019896	-0.109019	-0.346180	0.048754	0.144528	0.376896	-1.511427	-0.140434	0.376896	-1.508235	-0.051035	0.032267	-0.864213	-0.327538	0.032267	-0.828462	-0.345414	0.032267	-0.810587	-0.434792	0.069764	-0.612210	0.217203	0.069764	-0.577174	0.258611	0.069764	-0.612210	0.354165
1524	121.840000	0.374965	-1.447914	-0.108102	0.238767	-1.299686	-0.025260	0.234730	-1.300756	-0.229956	0.242804	-1.298617	0.179436	-0.004688	-1.113093	-0.330912	0.042666	-1.066243	0.349908	0.020860	-0.910687	-0.371466	0.048568	-0.772989	0.318449	0.015302	-0.698734	-0.129316	0.015910	-0.701182	0.138172	-0.110650	-0.265871	-0.111206	-0.076577	-0.279769	0.162767	-0.428801	0.021401	-0.092565	-0.362490	0.038191	0.162122	0.374965	-1.511874	-0.146478	0.374965	-1.515072	-0.056933	0.020860	-0.737286	-0.280637	0.020860	-0.704257	-0.293023	0.020860	-0.704257	-0.404495	0.048568	-0.643056	0.214503	0.048568	-0.600828	0.295711	0.048568	-0.623566	0.396409
1525	121.920000	0.376893	-1.450167	-0.103650	0.238060	-1.298129	-0.041360	0.242356	-1.290810	-0.250270	0.233763	-1.305449	0.167550	0.016751	-1.078303	-0.347003	0.021828	-1.081252	0.332473	0.027781	-0.836600	-0.359151	0.029873	-0.791414	0.313006	0.018935	-0.697651	-0.130835	0.010971	-0.705697	0.137607	-0.102646	-0.265668	-0.105843	-0.080010	-0.284589	0.167825	-0.421222	0.020538	-0.086872	-0.364754	0.031749	0.173079	0.376893	-1.512089	-0.146996	0.376893	-1.515185	-0.054113	0.027781	-0.684548	-0.238289	0.027781	-0.649459	-0.265580	0.027781	-0.641661	-0.374746	0.029873	-0.674385	0.218732	0.029873	-0.619121	0.283749	0.029873	-0.645127	0.378023
